<svg width="243" height="99" viewBox="0 0 243 99" fill="none" xmlns="http://www.w3.org/2000/svg">
<mask id="mask0_3_422" style="mask-type:luminance" maskUnits="userSpaceOnUse" x="0" y="0" width="243" height="99">
<path d="M242.317 0.159393H0.327332V98.1594H242.317V0.159393Z" fill="white"/>
</mask>
<g mask="url(#mask0_3_422)">
<path d="M60.3346 67.715C60.3346 59.6036 55.6785 55.9973 50.1274 55.9973C43.4149 55.9973 38.3965 60.235 38.3965 68.0788V96.4686H30.3309V67.715C30.3309 59.6036 25.6748 55.9973 20.1237 55.9973C13.4113 55.9973 8.39293 60.235 8.39293 68.0788V96.4686H0.327332V49.5018H8.39293V55.0878H8.57406C10.7263 50.3151 16.5438 48.421 21.4662 48.421C26.3887 48.421 31.4071 49.6837 35.2641 56.5324C38.1302 50.5826 44.3099 48.421 50.4896 48.421C60.5157 48.421 68.4002 54.4564 68.4002 66.8054V96.4579H60.3346V67.7043V67.715Z" fill="#FF5B23"/>
<path d="M99.7249 48.421C114.418 48.421 124.987 59.7748 124.987 73.0334C124.987 86.292 114.961 97.5494 99.7249 97.5494C84.4887 97.5494 74.4733 86.4632 74.4733 73.0334C74.4733 59.6036 85.0428 48.421 99.7249 48.421ZM83.0717 73.0334C83.0717 82.0436 90.775 89.9838 99.7249 89.9838C108.675 89.9838 116.389 82.0543 116.389 73.0334C116.389 63.2954 108.686 55.9973 99.7249 55.9973C90.7644 55.9973 83.0717 63.2954 83.0717 73.0334Z" fill="#FF5B23"/>
<path d="M234.262 65.0076C234.262 57.2601 226.558 55.5372 220.293 55.5372C215.904 55.5372 211.78 56.618 207.401 58.7796L203.907 52.0166C210.981 49.0417 216.532 48.4103 220.741 48.4103C231.939 48.4103 242.327 53.1937 242.327 64.3655V96.4579H234.805V91.407C230.682 95.7302 226.122 97.5387 219.942 97.5387C208.573 97.5387 199.613 91.1395 199.613 80.6846C199.613 72.1238 206.869 64.5475 219.857 64.5475C224.779 64.5475 229.979 65.9921 234.272 69.8659V64.9969L234.262 65.0076ZM221.37 71.6743C211.514 71.6743 208.2 76.4577 208.2 81.0484C208.2 85.6392 211.514 90.4225 221.37 90.4225C231.225 90.4225 234.539 85.6392 234.539 81.0484C234.539 76.4577 231.225 71.6743 221.37 71.6743Z" fill="#FF5B23"/>
<path d="M176.513 72.8729C176.002 75.8692 174.638 84.2374 175.299 87.2337C175.565 88.4322 176.343 89.3204 177.515 89.3097C180.626 89.2883 184.835 84.6226 187.37 80.7595C188.297 79.347 189.842 75.7194 190.173 74.9382C190.759 73.5256 191.611 72.1559 193.113 72.1452C194.285 72.1452 195.244 73.1832 195.511 74.371C196.203 77.5171 185.463 98.0952 176.236 98.1594C172.283 98.1915 169.247 95.0668 168.426 91.3321C164.846 75.0238 186.145 0.277118 202.841 0.159406C206.059 0.138004 208.968 2.66345 209.713 6.09848C211.844 15.8257 203.427 32.958 199.282 40.7805C193.39 52.2092 187.104 60.0852 179.209 69.3629C178.804 69.8338 176.513 72.8729 176.513 72.8729ZM196.054 34.0603C197.951 30.0046 204.066 15.7294 202.98 10.7962C202.745 9.74752 202.031 9.15897 201.008 9.15897C197.343 9.18037 192.059 19.86 187.733 31.5669C183.407 43.2845 179.72 55.8903 179.166 60.0852C186.348 52.7014 191.664 43.52 196.043 34.0496" fill="#FF5B23"/>
<path d="M171.623 65.7888C158.454 81.0805 151.336 86.9019 147.671 88.9886C147.287 89.2133 146.52 89.62 145.838 89.834C145.487 89.9517 145.029 89.9838 144.912 89.9838C144.581 89.9838 144.283 89.9089 144.027 89.7698C143.43 89.4594 143.036 88.8281 142.866 88.0576C142.258 85.2967 143.516 77.5599 143.995 74.7883C143.995 74.7883 146.115 71.9847 146.488 71.5459C153.787 62.9637 159.594 55.6977 165.049 45.1251C168.885 37.9019 176.662 22.0644 174.691 13.0755C173.999 9.89732 171.314 7.5645 168.331 7.5859C156.93 7.67151 143.207 45.3819 138.146 71.1714C136.388 72.8515 134.534 74.2961 133.362 75.1522C131.977 76.233 129.068 77.7953 129.643 80.1496C129.931 81.3267 131.146 82.0222 132.339 81.9794C133.106 81.958 134.747 81.1341 136.729 79.7857C136.057 85.0078 135.94 89.2454 136.516 91.8565C137.272 95.3129 140.074 98.2022 143.729 98.1701C145.38 98.1594 147.394 97.4959 149.067 96.3188C155.151 92.5092 163.547 83.606 171.079 75.088L171.633 65.7995L171.623 65.7888ZM154.362 36.6071C158.358 25.7776 163.248 15.9113 166.636 15.8899C167.585 15.8899 168.245 16.4356 168.458 17.3987C169.46 21.9574 163.813 35.1517 162.055 38.9078C158.017 47.6612 153.094 56.1365 146.456 62.9744C146.968 59.0899 150.367 47.4365 154.373 36.6071" fill="#FF5B23"/>
</g>
</svg>
