<svg width="222" height="45" viewBox="0 0 222 45" fill="none" xmlns="http://www.w3.org/2000/svg">
<g clip-path="url(#clip0_78_48)">
<path d="M163.066 16.4564C160.703 16.4564 159.503 14.7818 159.503 12.4692C159.503 10.1567 160.699 8.42755 163.066 8.42755C165.432 8.42755 166.62 10.1273 166.62 12.4692C166.62 14.8112 165.395 16.4564 163.066 16.4564ZM163.066 4.24316C159.009 4.24316 155.062 7.39509 155.062 12.4692C155.062 17.5434 158.67 20.6408 163.066 20.6408C167.097 20.6408 171.07 17.5224 171.07 12.4692C171.07 7.41608 167.427 4.24316 163.066 4.24316Z" fill="#40AC47"/>
<path d="M151.394 0.28125C145.699 0.28125 141.111 4.29776 141.111 10.8492C141.111 17.4007 145.611 20.7499 150.529 20.7499C152.507 20.7499 154.589 20.3092 155.781 19.6125C156.254 19.3313 156.341 19.1047 156.007 18.6598C155.534 18.0219 154.899 16.9852 154.589 16.2927C154.464 15.9989 154.364 15.7891 154.092 15.7891C154 15.7891 153.891 15.8185 153.753 15.873C152.979 16.2088 152.084 16.4354 151.252 16.4354C148.112 16.4354 145.808 14.8448 145.72 10.8534C145.64 6.78237 147.919 4.6629 151.311 4.6629C152.753 4.6629 153.611 4.77621 154.698 5.19591C154.782 5.22109 154.844 5.25047 155.003 5.25047C155.225 5.25047 155.392 5.05741 155.534 4.86015C155.923 4.30196 156.145 3.65982 156.145 2.9925C156.145 2.13212 155.756 1.4564 155.141 1.0409C154.276 0.453326 152.887 0.289644 151.39 0.289644" fill="#40AC47"/>
<path d="M220.081 0C219.391 0 217.584 0.226637 217.584 2.09429V19.6922C217.584 20.221 217.747 20.3889 218.224 20.3889H221.364C221.833 20.3889 222.004 20.221 222.004 19.6922V0.982093C222.004 0.591774 221.895 0.449077 221.619 0.310576C221.143 0.0881366 220.591 0.00419698 220.085 0.00419698" fill="#40AC47"/>
<path d="M179.488 4.24321C175.068 4.24321 172.203 6.94606 172.203 11.1598V19.6923C172.203 20.2211 172.37 20.389 172.843 20.389H175.95C176.423 20.389 176.594 20.2211 176.594 19.6923V12.0748C176.594 10.9038 176.648 8.53672 179.513 8.53672C182.377 8.53672 182.206 10.8451 182.206 12.016V19.6881C182.206 20.2169 182.373 20.3848 182.842 20.3848H185.957C186.43 20.3848 186.597 20.2169 186.597 19.6881V11.0423C186.597 6.82855 184.042 4.23901 179.488 4.23901" fill="#40AC47"/>
<path d="M214.193 4.24316C213.528 4.24316 211.692 4.4656 211.692 6.33326V12.9435C211.692 14.1145 211.834 16.4816 208.97 16.4816C206.105 16.4816 206.159 14.1732 206.159 12.9981V5.21686C206.159 4.82654 206.051 4.68804 205.775 4.54954C205.327 4.32291 204.771 4.24316 204.269 4.24316C203.6 4.24316 201.769 4.4656 201.769 6.33326V14.0053C201.769 18.2149 204.411 20.7835 208.886 20.7835C213.361 20.7835 216.083 17.9925 216.083 13.7829V5.21686C216.083 4.82654 215.97 4.68804 215.69 4.54954C215.247 4.32291 214.69 4.24316 214.193 4.24316Z" fill="#40AC47"/>
<path d="M194.296 4.07104C192.267 4.07104 187.601 4.63344 187.601 9.20395C187.601 12.721 189.738 13.5814 192.878 14.085L194.438 14.3369C195.989 14.5887 196.545 14.8111 196.545 15.6757C196.545 16.7921 194.852 16.8173 193.924 16.8173H193.794C191.46 16.8173 189.206 15.8981 189.127 15.8688C189.043 15.8478 188.964 15.8352 188.901 15.8352C188.646 15.8352 188.495 15.9863 188.424 16.2297L187.68 18.7395C187.601 19.0543 187.601 19.3019 187.927 19.4907C188.015 19.5495 190.595 20.6953 193.961 20.6953C198.77 20.6953 200.798 18.1855 200.798 15.3987C200.798 12.1334 198.967 11.1304 195.069 10.5176L193.459 10.2658C192.1 10.0433 191.624 9.84609 191.624 9.01089C191.624 8.00781 192.962 7.92387 194.63 7.92387C195.851 7.92387 196.851 8.11693 197.549 8.25963C198.381 8.42751 198.716 8.62057 198.937 8.62057C199.188 8.62057 199.356 8.39813 199.464 8.23025C200.267 7.03411 200.016 5.74984 199.134 5.07832C198.076 4.2725 195.717 4.07524 194.3 4.07524" fill="#40AC47"/>
<path d="M127.206 38.8262H125.053V42.3348H123.874V33.5925H127.206C128.135 33.5925 128.858 33.8318 129.373 34.3144C129.891 34.7929 130.15 35.4266 130.15 36.2114C130.15 36.9963 129.891 37.6426 129.373 38.1169C128.854 38.5953 128.131 38.8304 127.206 38.8304V38.8262ZM125.053 34.5201V37.9028H127.206C127.796 37.9028 128.239 37.7433 128.528 37.4286C128.816 37.1138 128.963 36.7109 128.963 36.2198C128.963 35.7288 128.816 35.3343 128.52 35.0069C128.227 34.6837 127.788 34.5201 127.202 34.5201H125.049H125.053Z" fill="#969293"/>
<path d="M136.419 37.3489V38.2806H132.839V41.4074H136.841V42.3307H131.66V33.5884H136.775V34.5201H132.835V37.3489H136.415H136.419Z" fill="#969293"/>
<path d="M141.571 41.5332C141.985 41.5332 142.391 41.4661 142.792 41.3276C143.189 41.1933 143.495 41.017 143.699 40.7988L144.281 41.6256C143.996 41.89 143.603 42.0956 143.097 42.2383C142.591 42.381 142.081 42.4566 141.567 42.4566C140.525 42.4566 139.689 42.1334 139.058 41.4871C138.426 40.8407 138.108 39.9258 138.108 38.7381V37.181C138.108 35.9638 138.422 35.0405 139.049 34.4068C139.677 33.773 140.517 33.4583 141.567 33.4583C142.683 33.4583 143.582 33.7227 144.26 34.2515L143.591 35.0321C143.373 34.8558 143.06 34.7048 142.662 34.5788C142.261 34.4529 141.897 34.39 141.571 34.39C140.822 34.39 140.254 34.625 139.869 35.0909C139.484 35.5609 139.292 36.2534 139.292 37.1684V38.7339C139.292 39.5858 139.493 40.2657 139.894 40.7694C140.295 41.273 140.856 41.5248 141.571 41.5248V41.5332ZM141.918 42.3852H141.082L140.889 43.1952C141.245 43.2246 141.491 43.275 141.629 43.3547C141.767 43.4345 141.839 43.5646 141.839 43.7534C141.839 43.9423 141.751 44.0934 141.579 44.1899C141.408 44.2865 141.174 44.341 140.881 44.341L140.923 44.9957C141.5 44.9957 141.951 44.8824 142.269 44.6558C142.587 44.4292 142.75 44.1228 142.75 43.7325C142.75 43.1449 142.449 42.7965 141.847 42.6916L141.918 42.381V42.3852Z" fill="#969293"/>
<path d="M151.453 42.3307L150.687 40.0769H147.409L146.631 42.3307H145.427L148.567 33.5884H149.579L152.653 42.3307H151.449H151.453ZM149.044 35.3343L147.748 39.0864H150.349L149.082 35.3343H149.044Z" fill="#969293"/>
<path d="M157.04 37.4621C157.955 37.7013 158.645 38.0287 159.105 38.4442C159.565 38.8597 159.795 39.4179 159.795 40.1146C159.795 40.4461 159.741 40.7441 159.632 41.0127C159.524 41.2771 159.373 41.4996 159.185 41.68C158.997 41.8563 158.775 42.0074 158.516 42.1249C158.257 42.2424 157.981 42.3264 157.692 42.3809C157.403 42.4313 157.094 42.4607 156.768 42.4607C156.099 42.4607 155.522 42.4061 155.037 42.3012C154.551 42.1963 154.091 42.0368 153.652 41.8227L153.832 40.8071C154.727 41.2771 155.706 41.508 156.772 41.508C156.998 41.508 157.215 41.4828 157.424 41.4366C157.633 41.3904 157.83 41.3149 158.014 41.21C158.198 41.1093 158.349 40.9624 158.457 40.7777C158.566 40.593 158.62 40.3748 158.62 40.1272C158.62 39.9257 158.579 39.7452 158.495 39.5774C158.411 39.4095 158.307 39.271 158.185 39.1577C158.06 39.0443 157.905 38.9394 157.717 38.8429C157.529 38.7464 157.353 38.6708 157.19 38.612C157.027 38.5533 156.843 38.4987 156.638 38.4484C155.731 38.2259 155.037 37.8944 154.551 37.4621C154.066 37.0298 153.82 36.4968 153.82 35.8588C153.82 35.4727 153.899 35.1286 154.054 34.818C154.209 34.5074 154.422 34.2556 154.689 34.0625C154.957 33.8695 155.262 33.7184 155.605 33.6176C155.948 33.5169 156.312 33.4666 156.701 33.4666C157.19 33.4666 157.671 33.5253 158.135 33.6386C158.599 33.7519 158.984 33.924 159.294 34.1591L159.005 35.1999C158.407 34.7173 157.638 34.4738 156.701 34.4738C155.563 34.4738 154.995 34.9313 154.995 35.8504C154.995 36.0477 155.041 36.2282 155.133 36.3918C155.225 36.5555 155.333 36.6898 155.463 36.799C155.593 36.9081 155.756 37.0046 155.961 37.1011C156.166 37.1977 156.345 37.269 156.492 37.3194C156.642 37.3697 156.822 37.4243 157.04 37.4789V37.4621Z" fill="#969293"/>
<path d="M171.124 37.1851V38.7422C171.124 39.9929 170.823 40.9246 170.216 41.5374C169.614 42.1501 168.728 42.4607 167.561 42.4607C166.482 42.4607 165.642 42.1585 165.035 41.5542C164.429 40.9456 164.124 40.0097 164.124 38.7422V37.1851C164.124 35.8925 164.42 34.9481 165.014 34.3522C165.608 33.7604 166.457 33.4624 167.557 33.4624C168.657 33.4624 169.577 33.7604 170.191 34.3522C170.81 34.9481 171.12 35.8925 171.12 37.1851H171.124ZM169.945 38.7422V37.1767C169.945 36.1317 169.727 35.414 169.296 35.0279C168.862 34.6376 168.284 34.4445 167.561 34.4571C166.879 34.4445 166.332 34.6334 165.913 35.0279C165.508 35.4182 165.303 36.1317 165.303 37.1767V38.7422C165.303 39.7201 165.508 40.421 165.913 40.8491C166.327 41.2772 166.875 41.4912 167.561 41.4912C168.293 41.4912 168.87 41.2772 169.296 40.8491C169.727 40.421 169.945 39.7201 169.945 38.7422Z" fill="#969293"/>
<path d="M179.107 36.2074C179.107 36.8117 178.944 37.3363 178.614 37.7728C178.283 38.2135 177.815 38.5241 177.204 38.7046L178.881 41.9908V42.3349H177.614L175.966 38.8263H174.009V42.3349H172.83V33.5926H176.163C177.024 33.5717 177.731 33.7983 178.283 34.2726C178.835 34.7468 179.107 35.3931 179.107 36.2116V36.2074ZM174.009 34.5202V37.9029H176.163C176.702 37.9197 177.129 37.7728 177.447 37.4665C177.765 37.1601 177.924 36.7446 177.924 36.2241C177.924 35.7037 177.765 35.2924 177.443 34.9734C177.125 34.6587 176.698 34.5076 176.163 34.5244H174.009V34.5202Z" fill="#969293"/>
<path d="M181.926 33.5884V42.3307H180.742V33.5884H181.926Z" fill="#969293"/>
<path d="M187.199 37.9658H190.352V41.1597C190.005 41.6129 189.582 41.9403 189.085 42.1459C188.587 42.3516 187.985 42.4565 187.274 42.4565C186.191 42.4565 185.329 42.1376 184.694 41.5038C184.058 40.8701 183.757 39.9887 183.795 38.8639V37.055C183.795 34.6627 184.928 33.4624 187.199 33.4624C188.357 33.4624 189.252 33.7142 189.892 34.2137L189.641 35.2965C189.064 34.7173 188.248 34.4277 187.199 34.4277C186.383 34.4277 185.81 34.6334 185.48 35.0489C185.145 35.4644 184.982 36.1317 184.982 37.0508V38.8639C184.961 39.6949 185.15 40.3496 185.547 40.8197C185.944 41.2898 186.521 41.529 187.282 41.529C188.186 41.529 188.817 41.3024 189.181 40.8491V38.8849H187.207V37.9616L187.199 37.9658Z" fill="#969293"/>
<path d="M193.689 33.5884V42.3307H192.505V33.5884H193.689Z" fill="#969293"/>
<path d="M202.437 33.5884V42.3307H201.258L197.064 35.6533L197.026 35.6659V42.3307H195.847V33.5884H197.026L201.22 40.2616L201.258 40.249V33.5884H202.437Z" fill="#969293"/>
<path d="M209.743 42.3307L208.978 40.0769H205.699L204.921 42.3307H203.717L206.857 33.5884H207.869L210.943 42.3307H209.739H209.743ZM207.338 35.3343L206.042 39.0864H208.643L207.376 35.3343H207.338Z" fill="#969293"/>
<path d="M213.532 33.5884V42.3307H212.348V33.5884H213.532Z" fill="#969293"/>
<path d="M218.796 37.4621C219.712 37.7013 220.402 38.0287 220.862 38.4442C221.322 38.8597 221.552 39.4179 221.552 40.1146C221.552 40.4461 221.498 40.7441 221.389 41.0127C221.28 41.2771 221.13 41.4996 220.942 41.68C220.754 41.8563 220.532 42.0074 220.273 42.1249C220.013 42.2424 219.737 42.3264 219.449 42.3809C219.16 42.4313 218.851 42.4607 218.525 42.4607C217.856 42.4607 217.278 42.4061 216.793 42.3012C216.308 42.1963 215.848 42.0368 215.409 41.8227L215.589 40.8071C216.484 41.2771 217.462 41.508 218.529 41.508C218.755 41.508 218.972 41.4828 219.181 41.4366C219.39 41.3904 219.587 41.3149 219.771 41.21C219.955 41.1093 220.105 40.9624 220.214 40.7777C220.323 40.593 220.377 40.3748 220.377 40.1272C220.377 39.9257 220.335 39.7452 220.252 39.5774C220.168 39.4095 220.064 39.271 219.942 39.1577C219.817 39.0443 219.662 38.9394 219.474 38.8429C219.286 38.7464 219.11 38.6708 218.947 38.612C218.784 38.5533 218.6 38.4987 218.395 38.4484C217.488 38.2259 216.793 37.8944 216.308 37.4621C215.823 37.0298 215.576 36.4968 215.576 35.8588C215.576 35.4727 215.656 35.1286 215.811 34.818C215.965 34.5074 216.179 34.2556 216.446 34.0625C216.714 33.8695 217.019 33.7184 217.362 33.6176C217.705 33.5169 218.069 33.4666 218.458 33.4666C218.947 33.4666 219.428 33.5253 219.892 33.6386C220.356 33.7519 220.741 33.924 221.05 34.1591L220.762 35.1999C220.164 34.7173 219.394 34.4738 218.458 34.4738C217.32 34.4738 216.752 34.9313 216.752 35.8504C216.752 36.0477 216.798 36.2282 216.89 36.3918C216.982 36.5555 217.09 36.6898 217.22 36.799C217.35 36.9081 217.513 37.0046 217.718 37.1011C217.922 37.1977 218.102 37.269 218.249 37.3194C218.399 37.3697 218.579 37.4243 218.796 37.4789V37.4621Z" fill="#969293"/>
<path d="M0 34.6041L117.287 34.5706" stroke="#989797" stroke-miterlimit="10"/>
<path d="M13.2355 10.0895C14.4356 9.59847 15.0796 8.67514 15.0796 7.43283C15.0796 5.49383 13.4404 4.26831 10.7933 4.26831H1.62256V16.4354H10.488C13.4655 16.4354 15.4685 15.021 15.4685 12.9057C15.4685 11.3486 14.5987 10.5092 13.2396 10.0937M10.2078 14.106H5.08928V11.3444H10.2078C11.27 11.3444 11.9516 11.869 11.9516 12.742C11.9516 13.615 11.2742 14.106 10.2078 14.106ZM10.2078 9.38862H5.08928V6.59344H10.2287C11.2909 6.59344 11.9516 7.15163 11.9516 8.0288C11.9516 8.90597 11.2742 9.39282 10.2078 9.39282" fill="#E9531E"/>
<path d="M126.182 4.26831H117.509V16.4354H120.976V11.7179H126.55C129.268 11.7179 130.974 10.3036 130.974 8.0288C130.974 5.75404 129.13 4.26831 126.186 4.26831M125.709 9.38862H120.971V6.59344H125.726C126.788 6.59344 127.449 7.15163 127.449 8.0288C127.449 8.90597 126.772 9.39282 125.709 9.39282" fill="#E9531E"/>
<path d="M105.896 10.186L100.702 4.26831H96.4702V16.4312H99.4309V8.17989L105.595 14.8951L111.324 8.09595V16.4312H114.791V4.26831H110.734L105.896 10.186Z" fill="#E9531E"/>
<path d="M31.5227 8.00782C31.5227 5.68269 29.6786 4.26831 26.7346 4.26831H17.6768V16.4354H21.1435V9.74117L27.2406 16.4354H31.5227L26.5255 11.2605H27.6211C30.0424 11.2605 31.5227 10.0392 31.5227 8.00782ZM21.1435 6.59344H26.2829C27.3451 6.59344 28.0058 7.15163 28.0058 8.02461C28.0058 8.89758 27.3284 9.38862 26.262 9.38862H21.1435V6.59344Z" fill="#E9531E"/>
<path d="M38.4728 4.26831L32.1499 16.4354H35.3699L36.6997 13.7073H43.5495L44.8584 16.4354H48.9524L42.6128 4.26831H38.4686H38.4728ZM37.695 11.6802L40.1581 6.63121L42.5793 11.6802H37.6908H37.695Z" fill="#E9531E"/>
<path d="M59.4614 9.09068L54.2885 8.28486C53.4019 8.14636 53.0339 7.84838 53.0339 7.37832C53.0339 6.87048 53.4354 6.58929 54.1296 6.58929H62.9239V4.26416H53.7825C51.2232 4.26416 49.6216 5.57362 49.6216 7.65532C49.6216 9.73702 51.0518 10.887 54.1839 11.378L58.6083 12.0579C59.7039 12.2342 60.2267 12.5658 60.2267 13.1785C60.2267 13.7535 59.8085 14.1061 59.0432 14.1061H50.161V16.4312H59.4447C62.075 16.4312 63.7101 15.0672 63.7101 12.8848C63.7101 10.7023 62.2465 9.52717 59.4614 9.09068Z" fill="#E9531E"/>
<path d="M64.7178 6.59344H70.0998V16.4312H73.6209V6.59344H79.0865V4.26831H64.7178V6.59344Z" fill="#E9531E"/>
<path d="M84.3638 11.3822H93.1414V9.31728H84.3638V6.59344H94.1534V4.26831H80.8804V16.4312H94.2245V14.106H84.3638V11.3822Z" fill="#E9531E"/>
</g>
<defs>
<clipPath id="clip0_78_48">
<rect width="222" height="45" fill="white"/>
</clipPath>
</defs>
</svg>
